<?xml version="1.0" encoding="UTF-8"?>
<svg version="1.1" xmlns="http://www.w3.org/2000/svg" width="2000" height="2000">
<path d="M0 0 C660 0 1320 0 2000 0 C2000 660 2000 1320 2000 2000 C1340 2000 680 2000 0 2000 C0 1340 0 680 0 0 Z " fill="#262626" transform="translate(0,0)"/>
<path d="M0 0 C1.0621875 0.10054687 2.124375 0.20109375 3.21875 0.3046875 C14.73641869 1.57578157 25.45311801 5.14597474 35.921875 10.05078125 C38.10591238 11.04837727 40.31758331 11.89886437 42.5625 12.75 C64.93935319 21.79596193 86.2253774 35.67848523 104 52 C105.24648063 53.07528058 106.49396796 54.14939474 107.7421875 55.22265625 C122.616779 68.21669316 136.02401987 82.57158913 147 99 C147.71027344 100.04800781 148.42054688 101.09601563 149.15234375 102.17578125 C154.87859915 110.75468573 159.65645145 119.64948658 164 129 C164.41121094 129.88171875 164.82242187 130.7634375 165.24609375 131.671875 C167.42561806 136.72633605 168.87689826 141.93134229 170.25 147.25 C170.42563477 147.92417969 170.60126953 148.59835937 170.78222656 149.29296875 C171.75828188 153.27606316 172.17808094 156.90413848 172 161 C173.65 160.67 175.3 160.34 177 160 C177.12528076 159.39115967 177.25056152 158.78231934 177.37963867 158.1550293 C181.88199848 136.57024675 181.88199848 136.57024675 187 127 C187.62055663 125.72883227 188.23603094 124.45517658 188.84765625 123.1796875 C194.76095999 110.9237837 201.8427892 99.89803363 210 89 C210.54140625 88.26265625 211.0828125 87.5253125 211.640625 86.765625 C223.0412486 71.60168875 237.06940048 57.64710668 252 46 C252.98355469 45.21109375 253.96710938 44.4221875 254.98046875 43.609375 C263.58322898 36.77124886 272.68335596 30.814693 282 25 C283.00546875 24.36191406 284.0109375 23.72382812 285.046875 23.06640625 C303.27170667 11.92042869 324.85170569 3.23702075 346 0 C347.59714844 -0.25716797 347.59714844 -0.25716797 349.2265625 -0.51953125 C354.75367944 -0.99600685 358.51486512 -1.01614492 363.19140625 2.18359375 C366.44124155 5.18872201 369.23870951 8.54955891 372 12 C372.48098145 12.5878125 372.96196289 13.175625 373.45751953 13.78125 C376.30384406 17.27146575 379.05799803 20.8230981 381.77880859 24.41162109 C383.48584247 26.63192545 385.27710045 28.77999313 387.0625 30.9375 C391.69352981 36.71211064 395.71690646 42.87369339 399.74755859 49.07421875 C400.96722184 50.94959958 402.19584902 52.8188433 403.42578125 54.6875 C404.20115477 55.87458617 404.97591986 57.06207003 405.75 58.25 C406.76320313 59.80460937 406.76320313 59.80460937 407.796875 61.390625 C413.09482319 69.87079837 417.47413877 78.84949791 421.75 87.875 C422.23082031 88.88046875 422.71164062 89.8859375 423.20703125 90.921875 C425.26506709 95.24432353 427.22573114 99.55330183 429 104 C429.48726562 104.97066406 429.97453125 105.94132812 430.4765625 106.94140625 C440.63816565 127.34277873 446.18026859 150.63069792 450 173 C450.20625 174.11503906 450.4125 175.23007813 450.625 176.37890625 C451.64092447 182.01587603 452.22027667 187.27280666 452 193 C445.09783567 193.99690694 438.19501276 194.98110263 431.28125 195.89453125 C416.63734171 197.85708389 402.31844975 200.35135922 388 204 C387.20948242 204.19706543 386.41896484 204.39413086 385.60449219 204.59716797 C375.48725582 207.14237134 365.84605102 210.42294547 356.18359375 214.3515625 C350.2412602 216.74467032 344.16806875 218.71343912 338 220.4375 C331.70031441 222.30985237 325.90252248 225.01561978 320.0625 228 C317.25645799 229.42773175 314.44194772 230.63019352 311.5 231.75 C304.09230725 234.66136938 297.07250987 238.36905723 290 242 C289.19062988 242.41169434 288.38125977 242.82338867 287.54736328 243.24755859 C263.69191157 255.39739799 241.15837897 269.22760701 219.92138672 285.52832031 C218.1019248 286.92193104 216.27260683 288.30156221 214.44140625 289.6796875 C203.82097246 297.75523621 193.88074838 306.73390566 184.71875 316.4375 C183.97467896 317.21770508 183.97467896 317.21770508 183.21557617 318.01367188 C181.90582457 319.40113799 180.61801728 320.80922831 179.33203125 322.21875 C177 324 177 324 174.5793457 323.81640625 C171.6702727 322.89563577 170.4778219 321.92010783 168.3984375 319.71875 C167.74891113 319.04585937 167.09938477 318.37296875 166.43017578 317.6796875 C165.41286377 316.60074219 165.41286377 316.60074219 164.375 315.5 C158.21484051 309.15053445 152.00246303 303.41740939 145 298 C143.26952417 296.60579003 141.54033811 295.20997756 139.8125 293.8125 C136.09011497 290.82863616 132.29282698 287.98188154 128.3984375 285.2265625 C127.93695312 284.82179688 127.47546875 284.41703125 127 284 C127 283.34 127 282.68 127 282 C125.93507324 281.61521484 125.93507324 281.61521484 124.84863281 281.22265625 C121.77272455 279.90245154 119.2044183 278.29691132 116.421875 276.4375 C115.35235596 275.72811279 114.28283691 275.01872559 113.1809082 274.2878418 C112.62118317 273.91428558 112.06145813 273.54072937 111.48477173 273.15585327 C88.59034891 257.90163101 64.64205815 245.19629425 40 233 C39.32114746 232.65694824 38.64229492 232.31389648 37.94287109 231.96044922 C34.50337418 230.22353123 31.09086799 228.53186992 27.5 227.125 C26.6646875 226.79757812 25.829375 226.47015625 24.96875 226.1328125 C20.67415825 224.4940867 16.37106926 222.87810747 12.06054688 221.28173828 C8.46347621 219.94508715 4.90297208 218.54941348 1.35546875 217.0859375 C-4.88166385 214.5815712 -11.26645428 212.59962118 -17.6875 210.625 C-18.63683411 210.33286118 -18.63683411 210.33286118 -19.60534668 210.03482056 C-44.23952002 202.47332856 -68.88007109 196.07028382 -94.76953125 195.17578125 C-97.40061284 195.03261478 -99.48852971 194.68302444 -102 194 C-102.26500692 186.76040347 -101.52613835 180.09512612 -100.125 173 C-99.95097656 172.07960938 -99.77695312 171.15921875 -99.59765625 170.2109375 C-99.07678617 167.4715467 -98.53996055 164.73568466 -98 162 C-97.83064941 161.12029541 -97.66129883 160.24059082 -97.48681641 159.33422852 C-95.59646964 149.62622317 -93.20129017 140.22006965 -88.93359375 131.26953125 C-87.825139 128.5749195 -87.16657793 125.89815853 -86.5 123.0625 C-84.2543659 113.52459173 -80.10542788 104.85850348 -76 96 C-75.42919754 94.73068897 -74.85891712 93.46114309 -74.2890625 92.19140625 C-60.81009682 62.46711125 -42.03641374 34.96244152 -20.39892578 10.59082031 C-19.10558646 9.12007005 -17.84606455 7.61976603 -16.58984375 6.1171875 C-11.22805839 0.08399692 -7.91732484 -1.22318221 0 0 Z " fill="#DBDBDB" transform="translate(824,1014)"/>
<path d="M0 0 C0 0.66 0 1.32 0 2 C-1.65 2.33 -3.3 2.66 -5 3 C-5.07992187 3.57621094 -5.15984375 4.15242187 -5.2421875 4.74609375 C-6.24081425 7.71623619 -7.81124808 8.96443682 -10.125 11.0625 C-24.50296245 25.14377433 -28.22321293 43.48181848 -28.4375 63 C-28.57681834 80.96854191 -24.85040984 95.37113472 -16 111 C-13.63182254 115.30488782 -11.28506172 119.62134373 -8.9375 123.9375 C-8.33873047 125.02740234 -7.73996094 126.11730469 -7.12304688 127.24023438 C15.58735144 169.10398066 18.07180594 219.31965328 14 266 C14.66 266 15.32 266 16 266 C16.12221924 265.41605469 16.24443848 264.83210938 16.37036133 264.23046875 C17.01144017 261.95947366 17.84806145 260.32023064 19.07421875 258.3125 C19.4916333 257.61987061 19.90904785 256.92724121 20.33911133 256.21362305 C20.78407959 255.48312744 21.22904785 254.75263184 21.6875 254 C27.61433733 244.08753046 32.75148754 234.16880534 36.7265625 223.30078125 C38 221 38 221 39.88671875 220.00390625 C44.56204754 219.99526424 47.85497881 223.89542924 51 227 C61.51100885 239.93388546 69.1804455 255.14918947 73.15625 271.2890625 C73.94535943 274.10039794 73.94535943 274.10039794 75.5 276.91015625 C77.1136835 280.23417616 77.8166685 283.18840256 78.5 286.8125 C79.22550203 290.63434107 80.05437874 294.20340673 81.4296875 297.83203125 C83.71448921 304.48521002 84.39660137 311.51012847 85.30761719 318.45556641 C85.62349881 320.86355634 85.95120519 323.26969565 86.28125 325.67578125 C86.88471931 330.11353329 87.45271599 334.55499458 88 339 C88.11778809 339.94238525 88.23557617 340.88477051 88.35693359 341.85571289 C89.38882808 351.41812313 89.33038996 361.08004522 89.375 370.6875 C89.38234161 372.13857147 89.38234161 372.13857147 89.38983154 373.61895752 C89.42465323 390.34819081 87.82050053 406.14523384 84.63378906 422.55371094 C83.56926716 428.34215127 82.78469865 434.16748032 82 440 C81.34 440 80.68 440 80 440 C79.7525 441.175625 79.505 442.35125 79.25 443.5625 C78.83746289 445.37594437 78.42010573 447.18829403 78 449 C77.731875 450.19496094 77.46375 451.38992188 77.1875 452.62109375 C75.53942893 459.43998782 73.83166437 465.20586973 69.5625 470.89453125 C67.87203304 473.17243547 66.51711116 475.52975927 65.125 478 C61.41525989 484.25774582 56.43232345 491.32265282 50 495 C47.37060547 494.57397461 47.37060547 494.57397461 45 494 C44.98130859 493.37472412 44.96261719 492.74944824 44.94335938 492.10522461 C44.43022897 478.18153156 42.72684552 465.12769675 39.1875 451.6875 C38.85621094 450.42091553 38.52492188 449.15433105 38.18359375 447.84936523 C36.22352436 440.68427502 33.89631456 433.76916529 31.1418457 426.87060547 C30.03143204 424.0790203 29.00282169 421.26926467 28 418.4375 C24.95726531 410.04248501 21.67632327 401.95184881 17.1875 394.22265625 C15.89712222 391.80744257 14.91326585 389.37007377 13.9375 386.8125 C12.40056662 382.79664182 10.44548718 379.54990075 8 376 C7.38125 374.39125 7.38125 374.39125 6.75 372.75 C5.44857864 369.54168316 3.65466515 367.21510039 1.4375 364.5625 C-11.81227725 348.50289796 -21.2657912 328.8708503 -30.33374023 310.25927734 C-30.76887939 309.37191895 -31.20401855 308.48456055 -31.65234375 307.5703125 C-32.03382568 306.78414551 -32.41530762 305.99797852 -32.80834961 305.18798828 C-34.02887531 302.94698207 -35.45337025 301.02479035 -37 299 C-37.69922095 297.46065046 -38.34357206 295.89545816 -38.9375 294.3125 C-40.18976842 291.05849947 -41.48680961 287.85796045 -42.9375 284.6875 C-46.81540304 276.04966108 -50.04436485 267.16451063 -52.91015625 258.14453125 C-53.80840249 255.5528172 -54.79632866 253.06184943 -55.84765625 250.53125 C-58.4596205 244.04988777 -60.43283318 237.39417992 -62.375 230.6875 C-62.56909454 230.02191071 -62.76318909 229.35632141 -62.96316528 228.67056274 C-66.85461706 215.25134416 -69.81339221 201.73111111 -72.42138672 188.00537109 C-72.94936719 185.26299153 -73.51996286 182.53299993 -74.09765625 179.80078125 C-75.71557024 171.65991077 -76.14958444 163.55712415 -76.09765625 155.2734375 C-76.0962413 154.39974518 -76.09482635 153.52605286 -76.09336853 152.62588501 C-76.08783674 149.87555297 -76.07529774 147.12530682 -76.0625 144.375 C-76.05747616 142.49349077 -76.05291481 140.61198025 -76.04882812 138.73046875 C-76.03788979 134.15361348 -76.02067362 129.57682123 -76 125 C-82.4035361 127.9064653 -84.16355897 134.75388332 -86.6875 141 C-89.8510119 150.1491234 -90.32625753 159.06174853 -90.25 168.6875 C-90.24105713 169.96407471 -90.23211426 171.24064941 -90.22290039 172.5559082 C-89.9804647 192.68811935 -87.67595562 210.61188261 -81.90820312 229.94628906 C-81.06301536 232.78811934 -80.25217326 235.63710252 -79.453125 238.4921875 C-76.57826479 248.61748735 -73.06297011 258.29063657 -68.87084961 267.94189453 C-67.899786 270.2368388 -66.99568357 272.55357362 -66.08984375 274.875 C-64.04541084 280.01156417 -61.68186087 284.94369198 -59.1875 289.875 C-58.74519043 290.75067627 -58.30288086 291.62635254 -57.84716797 292.52856445 C-52.40247659 303.2269575 -46.32716654 313.09894856 -39.34350586 322.85083008 C-36.13565767 327.3408048 -33.12667426 331.86611114 -30.37890625 336.65625 C-28.18265927 340.3892477 -25.73921717 343.96298056 -23.3203125 347.5546875 C-22 350 -22 350 -22 354 C-21.34 354 -20.68 354 -20 354 C-16.99605978 359.23611715 -14.37970163 364.44736287 -12 370 C-11.18133977 371.50805831 -10.34699664 373.00767258 -9.5 374.5 C-4 384.25377644 -4 384.25377644 -4 390 C-3.34 390 -2.68 390 -2 390 C-1.52949219 391.21816406 -1.05898438 392.43632813 -0.57421875 393.69140625 C0.05462205 395.31512952 0.68353198 396.93882601 1.3125 398.5625 C1.62123047 399.36236328 1.92996094 400.16222656 2.24804688 400.98632812 C4.07587043 405.70018887 6.00323071 410.35455987 8 415 C14.77568497 431.25266951 20.2261801 448.12810224 24.5625 465.1875 C24.81370605 466.15961426 25.06491211 467.13172852 25.32373047 468.13330078 C26.65218453 473.57204703 27.25650801 478.40286366 27 484 C27.66 484 28.32 484 29 484 C34.97250966 503.22856769 36.35629888 538.80049077 27.8984375 557.42578125 C27.60195313 557.94527344 27.30546875 558.46476562 27 559 C25.68 558.67 24.36 558.34 23 558 C22.75765625 556.98421875 22.5153125 555.9684375 22.265625 554.921875 C17.05758244 533.36300113 8.64211799 514.27109024 -4 496 C-4.64453125 495.0615625 -5.2890625 494.123125 -5.953125 493.15625 C-22.62435001 469.57256584 -42.89007513 450.9853144 -67.70458984 436.35400391 C-90.44547286 422.91840404 -110.50388272 405.63945361 -118 379.39453125 C-119.50065549 373.37737831 -120.30564582 367.12127456 -119 361 C-117.2109375 358.5546875 -117.2109375 358.5546875 -115 357 C-113.0625 356.8828125 -113.0625 356.8828125 -111 358 C-109.21448385 359.92060454 -107.608941 361.81657059 -106 363.875 C-100.53410705 370.60490398 -94.50581639 376.29562476 -88 382 C-87.39929688 382.58394531 -86.79859375 383.16789062 -86.1796875 383.76953125 C-80.92104009 388.7771377 -71.4518595 395 -64 395 C-64.43755615 394.57291748 -64.8751123 394.14583496 -65.32592773 393.70581055 C-73.72200044 385.48408132 -81.83487018 377.33227683 -89 368 C-90.19302734 366.49759766 -90.19302734 366.49759766 -91.41015625 364.96484375 C-97.28639848 357.52677922 -102.68952561 349.82582452 -107.81054688 341.85009766 C-108.91928003 340.12555335 -110.0449366 338.4119219 -111.171875 336.69921875 C-118.5288839 325.21092762 -123.9234751 312.66492476 -129.52514648 300.25976562 C-130.47473431 298.16095803 -131.43198937 296.06559394 -132.39868164 293.97460938 C-134.82535846 288.71824354 -137.06159508 283.47720452 -138.9375 278 C-139.3075415 276.93386475 -139.3075415 276.93386475 -139.68505859 275.84619141 C-143.99013932 263.32850887 -147.93579925 250.72601133 -151.23828125 237.90625 C-151.75915637 235.91891108 -152.35032109 233.94903674 -153 232 C-153.09531971 230.63666606 -153.13803882 229.26923089 -153.14526367 227.90258789 C-153.15164352 227.08065445 -153.15802338 226.25872101 -153.16459656 225.41188049 C-153.16570938 224.52443649 -153.1668222 223.63699249 -153.16796875 222.72265625 C-153.17129715 221.80093124 -153.17462555 220.87920624 -153.17805481 219.92955017 C-153.18312151 217.97346495 -153.18546321 216.01737107 -153.18530273 214.0612793 C-153.18746875 211.10515501 -153.20556994 208.1494166 -153.22460938 205.19335938 C-153.25015696 196.40447802 -153.19542797 187.94241853 -151.44799805 179.2902832 C-150.87650342 176.36865318 -150.83182416 173.53455571 -150.8125 170.5625 C-149.82477435 153.68452129 -144.35925259 136.74094007 -139.3125 120.6875 C-139.03970215 119.81794678 -138.7669043 118.94839355 -138.48583984 118.05249023 C-136.96048604 113.38586381 -135.13820783 109.08317777 -132.8684082 104.73168945 C-131.81358488 102.62827032 -131.11653653 100.50052106 -130.4375 98.25 C-122.94028902 77.15862436 -108.704146 57.63217779 -94 41 C-93.1368451 39.95255779 -92.27616437 38.90307181 -91.41796875 37.8515625 C-89.44872755 35.52919404 -87.56762882 33.57616614 -85.25 31.625 C-83.11685571 29.81698179 -81.01219329 28.01148712 -78.9765625 26.09375 C-58.77103065 7.16514767 -28.0657145 -6.93120884 0 0 Z " fill="#D9D9D8" transform="translate(969,523)"/>
<path d="M0 0 C11.37485365 6.79001027 17.27394039 16.85422795 20.81103516 29.43261719 C23.61600451 42.2437453 21.09250052 56.50826493 14.8984375 67.9296875 C9.2960119 75.97339352 1.54263895 82.74153745 -8.1015625 84.984375 C-19.00922443 86.85058265 -28.85061548 85.06659431 -38 78.75 C-47.35865575 71.11732584 -53.26358843 60.40311312 -54.75 48.4375 C-55.20324065 40.84571911 -54.97287621 33.72853396 -52.75 26.4375 C-52.49347656 25.55320312 -52.23695313 24.66890625 -51.97265625 23.7578125 C-48.39073249 12.65846077 -41.95115876 5.12933665 -31.75 -0.5625 C-22.3056336 -4.56389347 -9.22324349 -4.37812191 0 0 Z " fill="#D6D6D6" transform="translate(922.75,1361.5625)"/>
<path d="M0 0 C8.91 0 17.82 0 27 0 C36.05114873 15.79836869 44.48410948 31.90697854 53 48 C53.33 32.16 53.66 16.32 54 0 C59.61 0 65.22 0 71 0 C71 27.39 71 54.78 71 83 C62.09 83 53.18 83 44 83 C43.11699219 81.28296875 42.23398437 79.5659375 41.32421875 77.796875 C40.42393903 76.05214686 39.52363658 74.30743038 38.62280273 72.56298828 C37.72779459 70.82810692 36.8355123 69.09182012 35.94335938 67.35546875 C30.48201096 56.78702155 24.74001773 46.43639588 19 36 C18.67 51.51 18.34 67.02 18 83 C12.06 83 6.12 83 0 83 C0 55.61 0 28.22 0 0 Z " fill="#D6D6D6" transform="translate(788,1361)"/>
<path d="M0 0 C8.25 0 16.5 0 25 0 C28.00160755 10.52575748 31.00100632 21.05213738 33.99648285 31.57964134 C35.38737692 36.46755459 36.77925074 41.35518446 38.17333984 46.2421875 C39.5177883 50.95530946 40.85969422 55.66914839 42.19981384 60.38350296 C42.71244652 62.18515612 43.22600667 63.98654565 43.74049377 65.78767014 C44.45898438 68.30356327 45.1742202 70.82035978 45.88867188 73.33740234 C46.21127235 74.46273125 46.21127235 74.46273125 46.54039001 75.61079407 C48 80.77189568 48 80.77189568 48 83 C40.08 83 32.16 83 24 83 C23.01 79.596875 22.02 76.19375 21 72.6875 C20.68675781 71.61846436 20.37351562 70.54942871 20.05078125 69.44799805 C19.80714844 68.60277588 19.56351563 67.75755371 19.3125 66.88671875 C19.06113281 66.02264404 18.80976562 65.15856934 18.55078125 64.26831055 C18 62 18 62 18 59 C12.39 59 6.78 59 1 59 C0.67 61.31 0.34 63.62 0 66 C-0.35908374 67.47721996 -0.75146568 68.94715571 -1.19140625 70.40234375 C-1.39193604 71.07515381 -1.59246582 71.74796387 -1.79907227 72.44116211 C-2.17696899 73.67684937 -2.17696899 73.67684937 -2.5625 74.9375 C-3.366875 77.598125 -4.17125 80.25875 -5 83 C-10.94 83 -16.88 83 -23 83 C-21.30954879 74.94549717 -19.18979213 67.16624974 -16.75 59.3125 C-13.79870652 49.80007294 -11.1263447 40.23683848 -8.57104492 30.61108398 C-5.84826071 20.36683057 -2.94043563 10.18394778 0 0 Z " fill="#D6D6D6" transform="translate(1167,1361)"/>
<path d="M0 0 C15.51 0 31.02 0 47 0 C50 12 50 12 50 18 C41.09 18 32.18 18 23 18 C23 22.95 23 27.9 23 33 C30.92 33 38.84 33 47 33 C47 38.94 47 44.88 47 51 C39.41 51 31.82 51 24 51 C24 55.62 24 60.24 24 65 C33.57 65 43.14 65 53 65 C52.01 70.94 51.02 76.88 50 83 C33.5 83 17 83 0 83 C0 55.61 0 28.22 0 0 Z " fill="#D6D6D6" transform="translate(1025,1361)"/>
<path d="M0 0 C7.92 0 15.84 0 24 0 C28.05559703 12.5723508 31.81890761 25.19269442 35.37109375 37.91699219 C35.86222656 39.66351074 35.86222656 39.66351074 36.36328125 41.4453125 C36.80087769 43.01563232 36.80087769 43.01563232 37.24731445 44.61767578 C37.77657001 46.93031219 37.77657001 46.93031219 39 48 C43.62 32.16 48.24 16.32 53 0 C58.94 0 64.88 0 71 0 C69.48008134 7.10283941 67.7034117 14.11234388 65.8125 21.125 C65.35230469 22.83417603 65.35230469 22.83417603 64.8828125 24.57788086 C62.6253055 32.88055394 60.18804203 41.11477165 57.64160156 49.33276367 C54.1974289 60.49129934 51.11559906 71.74569321 48 83 C40.08 83 32.16 83 24 83 C20.31259059 71.57802451 16.87496208 60.13476385 13.68408203 48.56494141 C11.67580884 41.31769468 9.53669308 34.12118827 7.3125 26.9375 C4.55388794 18.01702134 2.16275133 9.08355558 0 0 Z " fill="#D6D6D6" transform="translate(946,1361)"/>
<path d="M0 0 C7.92 0 15.84 0 24 0 C24 21.45 24 42.9 24 65 C31.92 65 39.84 65 48 65 C50 74 50 74 50 83 C33.5 83 17 83 0 83 C0 55.61 0 28.22 0 0 Z " fill="#D5D5D5" transform="translate(1089,1361)"/>
<path d="M0 0 C4.0634923 1.30031754 5.97195072 3.46011114 8.125 7 C14.37431343 19.809796 13.72590388 38.42312263 10.125 52 C8.15526109 56.71523115 6.41724725 60.13850183 2.125 63 C-0.75 63.5 -0.75 63.5 -3.875 63 C-9.35509683 58.04181715 -12.38673667 51.16509291 -13.24414062 43.85107422 C-13.37513149 40.43372413 -13.3719142 37.04419154 -13.3125 33.625 C-13.31958984 32.48289062 -13.32667969 31.34078125 -13.33398438 30.1640625 C-13.261282 20.32127944 -12.4381759 9.79377138 -5.875 2 C-2.875 0 -2.875 0 0 0 Z " fill="#282828" transform="translate(906.875,1371)"/>
<path d="M0 0 C2.42604752 2.42604752 2.75843519 4.14192776 3.625 7.4375 C3.88539062 8.40558594 4.14578125 9.37367187 4.4140625 10.37109375 C5 13 5 13 5 16 C2.03 16 -0.94 16 -4 16 C-2.98408579 10.53135543 -1.92908943 5.23609987 0 0 Z " fill="#3E3E3E" transform="translate(1176,1393)"/>
<path d="M0 0 C0.66 0.33 1.32 0.66 2 1 C-4.47251453 8.83514917 -11.77773464 15.86788775 -19 23 C-19.66 22.67 -20.32 22.34 -21 22 C-14.52748547 14.16485083 -7.22226536 7.13211225 0 0 Z " fill="#B9B8B8" transform="translate(1065,1069)"/>
<path d="M0 0 C0.99 0 1.98 0 3 0 C2.90150757 1.24837646 2.90150757 1.24837646 2.80102539 2.52197266 C2.12451709 11.47126428 1.7161288 20.40406605 1.4375 29.375 C1.39412742 30.7083414 1.35050859 32.04167481 1.30664062 33.375 C1.20202332 36.58326388 1.09984162 39.79158457 1 43 C0.67 43 0.34 43 0 43 C0 29.8 0 16.6 0 3 C-0.66 2.67 -1.32 2.34 -2 2 C-1.34 1.34 -0.68 0.68 0 0 Z " fill="#828181" transform="translate(893,645)"/>
<path d="M0 0 C0.33 0 0.66 0 1 0 C3.26967735 6.43075251 3.43193658 12.66016946 3.625 19.4375 C3.66367187 20.55060547 3.70234375 21.66371094 3.7421875 22.81054688 C3.83590966 25.54020476 3.92162294 28.26986563 4 31 C3.67 31 3.34 31 3 31 C2.49130173 27.3344862 1.99463592 23.66743573 1.5 20 C1.35691406 18.97003906 1.21382812 17.94007812 1.06640625 16.87890625 C0.30596126 11.19367468 -0.16544234 5.73533461 0 0 Z " fill="#A4A3A2" transform="translate(997,1007)"/>
<path d="M0 0 C2.38003355 1.26935122 2.91747992 2.52640646 3.875 5 C3.215 5 2.555 5 1.875 5 C1.545 4.34 1.215 3.68 0.875 3 C-1.105 3.66 -3.085 4.32 -5.125 5 C-5.125 9.29 -5.125 13.58 -5.125 18 C-5.455 18 -5.785 18 -6.125 18 C-6.23323773 15.75106046 -6.31069645 13.50062425 -6.375 11.25 C-6.42140625 9.99703125 -6.4678125 8.7440625 -6.515625 7.453125 C-6.125 4 -6.125 4 -4.2421875 1.546875 C-2.125 0 -2.125 0 0 0 Z " fill="#9F9E9E" transform="translate(856.125,880)"/>
<path d="M0 0 C0.33 0.66 0.66 1.32 1 2 C-0.26257233 3.17560179 -1.53537084 4.34022865 -2.8125 5.5 C-3.87404297 6.47453125 -3.87404297 6.47453125 -4.95703125 7.46875 C-7 9 -7 9 -10 9 C-9.0409375 8.1028125 -9.0409375 8.1028125 -8.0625 7.1875 C-5.79689611 5.09189663 -5.79689611 5.09189663 -5 2 C-2.4375 0.8125 -2.4375 0.8125 0 0 Z " fill="#5D5B5B" transform="translate(969,524)"/>
<path d="M0 0 C0.33 0 0.66 0 1 0 C2.86783046 5.48675196 3.2358396 10.22192976 3 16 C2.67 16 2.34 16 2 16 C1.855625 14.865625 1.71125 13.73125 1.5625 12.5625 C1.38828522 9.19222799 1.38828522 9.19222799 0 8 C-0.14115161 5.32941149 -0.04247107 2.67567762 0 0 Z " fill="#676665" transform="translate(997,1007)"/>
</svg>
